<?xml version="1.0" encoding="UTF-8"?>
<svg width="96" height="96" viewBox="0 0 96 96" fill="none" xmlns="http://www.w3.org/2000/svg" role="img" aria-label="Ícone de comunicação e diálogo">
  <defs>
    <linearGradient id="gc" x1="0" y1="0" x2="1" y2="1">
      <stop offset="0%" stop-color="#00E676"/>
      <stop offset="100%" stop-color="#007BFF"/>
    </linearGradient>
    <filter id="sc" x="-20%" y="-20%" width="140%" height="140%">
      <feDropShadow dx="0" dy="3" stdDeviation="6" flood-color="#000" flood-opacity="0.35"/>
    </filter>
  </defs>
  <g filter="url(#sc)">
    <!-- Left chat bubble -->
    <path d="M18 28h34a10 10 0 0 1 10 10v8a10 10 0 0 1-10 10H36l-10 10v-10H18a10 10 0 0 1-10-10v-8a10 10 0 0 1 10-10z" stroke="url(#gc)" stroke-width="3" fill="#0F1115"/>
    <!-- Right chat bubble -->
    <path d="M78 68H52a10 10 0 0 1-10-10v-6a10 10 0 0 1 10-10h16l10-10v10h0a10 10 0 0 1 10 10v6a10 10 0 0 1-10 10z" stroke="url(#gc)" stroke-width="3" fill="#0F1115"/>
    <!-- Typing dots -->
    <circle cx="28" cy="46" r="3" fill="#00E676"/>
    <circle cx="38" cy="46" r="3" fill="#3fc7d5"/>
    <circle cx="48" cy="46" r="3" fill="#007BFF"/>
  </g>
</svg>

